<?xml version="1.0" encoding="UTF-8" standalone="no" ?>
<!DOCTYPE svg PUBLIC "-//W3C//DTD SVG 1.1//EN" "http://www.w3.org/Graphics/SVG/1.1/DTD/svg11.dtd">
<svg xmlns="http://www.w3.org/2000/svg" xmlns:xlink="http://www.w3.org/1999/xlink" version="1.1" width="500" height="500" viewBox="0 0 500 500" xml:space="preserve">
<desc>Created with Fabric.js 4.6.0</desc>
<defs>
</defs>
<g transform="matrix(1.62 0 0 1.62 250 250)" id="_FVX0-q2QHShtoODp-Os1"  >
<path style="stroke: rgb(0,0,0); stroke-width: 1; stroke-dasharray: none; stroke-linecap: butt; stroke-dashoffset: 0; stroke-linejoin: miter; stroke-miterlimit: 4; fill: rgb(255,255,255); fill-opacity: 0; fill-rule: nonzero; opacity: 1;" vector-effect="non-scaling-stroke"  transform=" translate(0, 0)" d="M 108.96655 85.00541 C 80.48378 114.66682 41.103229999999996 131.37992 -0.019180000000005748 131.25895 C -41.14159000000001 131.13798 -80.42312000000001 114.19346999999999 -108.73089 84.36499 L -111.08617 81.88319000000001 L -112.04311 81.61570000000002 L -65.04014000000001 81.61570000000002 L -65.04014000000001 71.17060000000002 L -49.19964000000001 71.17060000000002 L -49.19964000000001 -75.06084999999997 L -20.64845000000001 -75.06084999999997 L -20.64845000000001 -86.81158999999997 L -39.967140000000015 -86.81158999999997 L -39.967140000000015 -98.32387999999997 L -20.648460000000014 -98.32387999999997 C -20.648460000000014 -109.80561999999998 -15.666570000000014 -120.72246999999997 -6.993430000000014 -128.24622999999997 L -3.519710000000014 -131.25960999999998 L -0.0012100000000141442 -128.21945 C 8.684619999999985 -120.71445999999999 13.677009999999985 -109.80293 13.677009999999985 -98.32388999999999 L 34.28257999999998 -98.32388999999999 L 34.28257999999998 -86.81159 L 13.677009999999981 -86.8116 L 13.677009999999981 -75.06085999999999 L 46.43821999999998 -75.06085999999999 L 46.43821999999998 71.17059 L 63.469729999999984 71.17059 L 63.469729999999984 81.61569 L 111.78345999999999 81.61569 L 112.04310999999998 81.80151000000001 z M 9.57171 -75.06086 L 9.57171 -86.81159000000001 L -16.34243 -86.81159000000001 L -16.34243 -75.06085000000002 z M -20.03653 62.77824 L -20.03653 -67.14913 L -37.214389999999995 -67.14913 L -37.214389999999995 62.77824 z M 5.20326 62.77826 L 5.20326 -67.13170999999998 L -11.99342 -67.13170999999998 L -11.99342 62.77826 z M 31.39313 62.76082 L 31.39313 -67.14914999999999 L 14.196449999999999 -67.14914999999999 L 14.196449999999999 62.760819999999995 z" stroke-linecap="round" />
</g>
<g transform="matrix(1 0 0 1 47.17 274.48)" id="L5-Yng67AvQBoqYYUnR8x"  >
<path style="stroke: rgb(0,0,0); stroke-width: 1; stroke-dasharray: none; stroke-linecap: butt; stroke-dashoffset: 0; stroke-linejoin: miter; stroke-miterlimit: 4; fill: rgb(255,255,255); fill-opacity: 0; fill-rule: nonzero; opacity: 1;" vector-effect="non-scaling-stroke"  transform=" translate(0, 0)" d="M 0 0" stroke-linecap="round" />
</g>
</svg>